<?xml version="1.0" standalone="no"?><!DOCTYPE svg PUBLIC "-//W3C//DTD SVG 1.1//EN" "http://www.w3.org/Graphics/SVG/1.1/DTD/svg11.dtd"><svg t="1643015527514" class="icon" viewBox="0 0 1024 1024" version="1.1" xmlns="http://www.w3.org/2000/svg" p-id="12979" xmlns:xlink="http://www.w3.org/1999/xlink" width="200" height="200"><defs><style type="text/css"></style></defs><path d="M582.826667 825.6A512 512 0 0 1 512 858.666667c-137.813333-49.493333-384-241.92-384-450.133334a201.6 201.6 0 0 1 366.506667-116.053333 21.333333 21.333333 0 0 0 34.986666 0A201.6 201.6 0 0 1 896 408.533333a21.333333 21.333333 0 0 0 42.666667 0 244.266667 244.266667 0 0 0-426.666667-162.56 244.266667 244.266667 0 0 0-426.666667 162.56c0 234.666667 269.226667 442.88 419.84 492.8a21.333333 21.333333 0 0 0 13.653334 0 506.24 506.24 0 0 0 85.333333-38.613333 21.333333 21.333333 0 1 0-21.333333-37.12zM917.333333 608h-117.333333V490.666667a21.333333 21.333333 0 0 0-42.666667 0v117.333333H640a21.333333 21.333333 0 0 0 0 42.666667h117.333333V768a21.333333 21.333333 0 0 0 42.666667 0v-117.333333H917.333333a21.333333 21.333333 0 0 0 0-42.666667z" p-id="12980"></path></svg>