<?xml version="1.0" standalone="no"?><!DOCTYPE svg PUBLIC "-//W3C//DTD SVG 1.1//EN" "http://www.w3.org/Graphics/SVG/1.1/DTD/svg11.dtd"><svg t="1630490214279" class="icon" viewBox="0 0 1024 1024" version="1.1" xmlns="http://www.w3.org/2000/svg" p-id="5154" width="128" height="128" xmlns:xlink="http://www.w3.org/1999/xlink"><defs><style type="text/css"></style></defs><path d="M227.328 305.152h558.592v484.352H227.328z" fill="#6DACE7" p-id="5155"></path><path d="M876.544 929.28H147.456c-11.264 0-19.968-9.216-19.968-19.968v-119.808c0-11.264 9.216-19.968 19.968-19.968h638.464v39.936H167.424v79.36h689.152v-696.32H167.424v521.216h-39.936V173.056c0-11.264 9.216-19.968 19.968-19.968h729.088c11.264 0 19.968 9.216 19.968 19.968v736.256c0 10.752-9.216 19.968-19.968 19.968z" fill="#0024A2" p-id="5156"></path><path d="M436.736 223.744h151.04v39.936H436.736zM641.024 652.288H517.12c-11.264 0-19.968-9.216-19.968-19.968v-84.992h39.936v65.024h83.968V499.2h-50.176c-11.264 0-19.968-9.216-19.968-19.968V388.608H469.504v90.624c0 11.264-9.216 19.968-19.968 19.968h-46.592v113.152h56.832v39.936h-76.8c-11.264 0-19.968-9.216-19.968-19.968V479.232c0-11.264 9.216-19.968 19.968-19.968h46.592V368.64c0-11.264 9.216-19.968 19.968-19.968h121.344c11.264 0 19.968 9.216 19.968 19.968v90.624h50.176c11.264 0 19.968 9.216 19.968 19.968v153.088c0.512 11.264-8.704 19.968-19.968 19.968z" fill="#0024A2" p-id="5157"></path></svg>